<?xml version="1.0" standalone="no"?>
<!DOCTYPE svg PUBLIC "-//W3C//DTD SVG 1.1//EN" "http://www.w3.org/Graphics/SVG/1.1/DTD/svg11.dtd">
<svg version="1.1" xmlns="http://www.w3.org/2000/svg" viewBox="0 0 244 468" width="244" height="468"><!-- svg-source:excalidraw --><metadata></metadata><defs><style class="style-fonts">
      </style></defs><rect x="0" y="0" width="244" height="468" fill="#ffffff"></rect><g stroke-linecap="round" transform="translate(10 122) rotate(0 28 28)"><path d="M0 0 C17.85 0, 35.69 0, 56 0 M0 0 C20.72 0, 41.45 0, 56 0 M56 0 C56 11.55, 56 23.1, 56 56 M56 0 C56 21.89, 56 43.78, 56 56 M56 56 C37.52 56, 19.04 56, 0 56 M56 56 C36.71 56, 17.42 56, 0 56 M0 56 C0 39.39, 0 22.78, 0 0 M0 56 C0 33.93, 0 11.85, 0 0" stroke="#1e1e1e" stroke-width="1" fill="none"></path></g><g stroke-linecap="round" transform="translate(66 122) rotate(0 28 28)"><path d="M0 0 L56 0 L56 56 L0 56" stroke="none" stroke-width="0" fill="#1e1e1e"></path><path d="M0 0 C17.87 0, 35.74 0, 56 0 M0 0 C12.03 0, 24.07 0, 56 0 M56 0 C56 15.67, 56 31.33, 56 56 M56 0 C56 20.91, 56 41.83, 56 56 M56 56 C34.09 56, 12.18 56, 0 56 M56 56 C35.87 56, 15.75 56, 0 56 M0 56 C0 35.56, 0 15.13, 0 0 M0 56 C0 44.25, 0 32.49, 0 0" stroke="#1e1e1e" stroke-width="1" fill="none"></path></g><g stroke-linecap="round" transform="translate(122 122) rotate(0 28 28)"><path d="M0 0 C19.76 0, 39.53 0, 56 0 M0 0 C21.86 0, 43.73 0, 56 0 M56 0 C56 18.46, 56 36.92, 56 56 M56 0 C56 20.74, 56 41.49, 56 56 M56 56 C41.69 56, 27.38 56, 0 56 M56 56 C41.57 56, 27.13 56, 0 56 M0 56 C0 42.81, 0 29.62, 0 0 M0 56 C0 33.84, 0 11.67, 0 0" stroke="#1e1e1e" stroke-width="1" fill="none"></path></g><g stroke-linecap="round" transform="translate(178 122) rotate(0 28 28)"><path d="M0 0 L56 0 L56 56 L0 56" stroke="none" stroke-width="0" fill="#1e1e1e"></path><path d="M0 0 C15.58 0, 31.17 0, 56 0 M0 0 C18.51 0, 37.02 0, 56 0 M56 0 C56 19.11, 56 38.23, 56 56 M56 0 C56 18.77, 56 37.54, 56 56 M56 56 C34.77 56, 13.53 56, 0 56 M56 56 C43.42 56, 30.84 56, 0 56 M0 56 C0 39.75, 0 23.49, 0 0 M0 56 C0 38.5, 0 21.01, 0 0" stroke="#1e1e1e" stroke-width="1" fill="none"></path></g><g stroke-linecap="round" transform="translate(10 178) rotate(0 28 28)"><path d="M0 0 L56 0 L56 56 L0 56" stroke="none" stroke-width="0" fill="#1e1e1e"></path><path d="M0 0 C18.27 0, 36.55 0, 56 0 M0 0 C14.26 0, 28.53 0, 56 0 M56 0 C56 11.78, 56 23.56, 56 56 M56 0 C56 20.88, 56 41.77, 56 56 M56 56 C42.8 56, 29.6 56, 0 56 M56 56 C36.8 56, 17.6 56, 0 56 M0 56 C0 36.42, 0 16.84, 0 0 M0 56 C0 36.51, 0 17.02, 0 0" stroke="#1e1e1e" stroke-width="1" fill="none"></path></g><g stroke-linecap="round" transform="translate(66 178) rotate(0 28 28)"><path d="M0 0 C20.03 0, 40.06 0, 56 0 M0 0 C21.61 0, 43.21 0, 56 0 M56 0 C56 18.69, 56 37.39, 56 56 M56 0 C56 21.54, 56 43.08, 56 56 M56 56 C36.57 56, 17.15 56, 0 56 M56 56 C43.69 56, 31.39 56, 0 56 M0 56 C0 35.51, 0 15.02, 0 0 M0 56 C0 34.95, 0 13.9, 0 0" stroke="#1e1e1e" stroke-width="1" fill="none"></path></g><g stroke-linecap="round" transform="translate(122 178) rotate(0 28 28)"><path d="M0 0 L56 0 L56 56 L0 56" stroke="none" stroke-width="0" fill="#1e1e1e"></path><path d="M0 0 C14.16 0, 28.32 0, 56 0 M0 0 C17.01 0, 34.01 0, 56 0 M56 0 C56 14.17, 56 28.34, 56 56 M56 0 C56 16.17, 56 32.34, 56 56 M56 56 C36.55 56, 17.11 56, 0 56 M56 56 C40.76 56, 25.52 56, 0 56 M0 56 C0 43.49, 0 30.97, 0 0 M0 56 C0 33.99, 0 11.98, 0 0" stroke="#1e1e1e" stroke-width="1" fill="none"></path></g><g stroke-linecap="round" transform="translate(178 178) rotate(0 28 28)"><path d="M0 0 C14.15 0, 28.31 0, 56 0 M0 0 C20.11 0, 40.22 0, 56 0 M56 0 C56 12.31, 56 24.63, 56 56 M56 0 C56 18.12, 56 36.24, 56 56 M56 56 C37.64 56, 19.27 56, 0 56 M56 56 C36.54 56, 17.08 56, 0 56 M0 56 C0 34.69, 0 13.37, 0 0 M0 56 C0 40.43, 0 24.87, 0 0" stroke="#1e1e1e" stroke-width="1" fill="none"></path></g><g stroke-linecap="round" transform="translate(10 234) rotate(0 28 28)"><path d="M0 0 C13.54 0, 27.08 0, 56 0 M0 0 C13.67 0, 27.34 0, 56 0 M56 0 C56 20.71, 56 41.41, 56 56 M56 0 C56 22.06, 56 44.13, 56 56 M56 56 C43.51 56, 31.03 56, 0 56 M56 56 C34.73 56, 13.47 56, 0 56 M0 56 C0 41.52, 0 27.04, 0 0 M0 56 C0 40.23, 0 24.45, 0 0" stroke="#1e1e1e" stroke-width="1" fill="none"></path></g><g stroke-linecap="round" transform="translate(66 234) rotate(0 28 28)"><path d="M0 0 L56 0 L56 56 L0 56" stroke="none" stroke-width="0" fill="#1e1e1e"></path><path d="M0 0 C21.71 0, 43.42 0, 56 0 M0 0 C15.4 0, 30.8 0, 56 0 M56 0 C56 19.42, 56 38.85, 56 56 M56 0 C56 21.28, 56 42.56, 56 56 M56 56 C42.62 56, 29.25 56, 0 56 M56 56 C36.58 56, 17.17 56, 0 56 M0 56 C0 41.45, 0 26.9, 0 0 M0 56 C0 43.8, 0 31.6, 0 0" stroke="#1e1e1e" stroke-width="1" fill="none"></path></g><g stroke-linecap="round" transform="translate(122 234) rotate(0 28 28)"><path d="M0 0 C12.22 0, 24.44 0, 56 0 M0 0 C21.5 0, 43 0, 56 0 M56 0 C56 17.88, 56 35.77, 56 56 M56 0 C56 19.68, 56 39.35, 56 56 M56 56 C44.76 56, 33.51 56, 0 56 M56 56 C44.68 56, 33.36 56, 0 56 M0 56 C0 36.36, 0 16.71, 0 0 M0 56 C0 37.04, 0 18.08, 0 0" stroke="#1e1e1e" stroke-width="1" fill="none"></path></g><g stroke-linecap="round" transform="translate(178 234) rotate(0 28 28)"><path d="M0 0 L56 0 L56 56 L0 56" stroke="none" stroke-width="0" fill="#1e1e1e"></path><path d="M0 0 C18.25 0, 36.51 0, 56 0 M0 0 C11.89 0, 23.78 0, 56 0 M56 0 C56 11.47, 56 22.93, 56 56 M56 0 C56 19.65, 56 39.31, 56 56 M56 56 C40.71 56, 25.41 56, 0 56 M56 56 C38.15 56, 20.3 56, 0 56 M0 56 C0 35.59, 0 15.17, 0 0 M0 56 C0 35.03, 0 14.06, 0 0" stroke="#1e1e1e" stroke-width="1" fill="none"></path></g><g stroke-linecap="round" transform="translate(10 290) rotate(0 28 28)"><path d="M0 0 L56 0 L56 56 L0 56" stroke="none" stroke-width="0" fill="#1e1e1e"></path><path d="M0 0 C17.93 0, 35.86 0, 56 0 M0 0 C22.17 0, 44.35 0, 56 0 M56 0 C56 19.05, 56 38.11, 56 56 M56 0 C56 20.34, 56 40.68, 56 56 M56 56 C36.8 56, 17.59 56, 0 56 M56 56 C41.57 56, 27.14 56, 0 56 M0 56 C0 41.44, 0 26.88, 0 0 M0 56 C0 34.09, 0 12.17, 0 0" stroke="#1e1e1e" stroke-width="1" fill="none"></path></g><g stroke-linecap="round" transform="translate(66 290) rotate(0 28 28)"><path d="M0 0 C16.71 0, 33.41 0, 56 0 M0 0 C19.22 0, 38.45 0, 56 0 M56 0 C56 14.25, 56 28.51, 56 56 M56 0 C56 21.95, 56 43.9, 56 56 M56 56 C39.65 56, 23.31 56, 0 56 M56 56 C36.61 56, 17.22 56, 0 56 M0 56 C0 39.56, 0 23.11, 0 0 M0 56 C0 40.98, 0 25.96, 0 0" stroke="#1e1e1e" stroke-width="1" fill="none"></path></g><g stroke-linecap="round" transform="translate(122 290) rotate(0 28 28)"><path d="M0 0 L56 0 L56 56 L0 56" stroke="none" stroke-width="0" fill="#1e1e1e"></path><path d="M0 0 C12.22 0, 24.44 0, 56 0 M0 0 C17.55 0, 35.09 0, 56 0 M56 0 C56 19.02, 56 38.04, 56 56 M56 0 C56 13.35, 56 26.7, 56 56 M56 56 C35.38 56, 14.76 56, 0 56 M56 56 C36.06 56, 16.12 56, 0 56 M0 56 C0 39.66, 0 23.31, 0 0 M0 56 C0 40.58, 0 25.16, 0 0" stroke="#1e1e1e" stroke-width="1" fill="none"></path></g><g stroke-linecap="round" transform="translate(178 290) rotate(0 28 28)"><path d="M0 0 C20.71 0, 41.41 0, 56 0 M0 0 C22.06 0, 44.13 0, 56 0 M56 0 C56 12.49, 56 24.97, 56 56 M56 0 C56 21.27, 56 42.53, 56 56 M56 56 C41.52 56, 27.04 56, 0 56 M56 56 C40.23 56, 24.45 56, 0 56 M0 56 C0 43.55, 0 31.11, 0 0 M0 56 C0 36.26, 0 16.51, 0 0" stroke="#1e1e1e" stroke-width="1" fill="none"></path></g><g stroke-linecap="round" transform="translate(10 402) rotate(0 28 28)"><path d="M0 0 C18.56 0, 37.12 0, 56 0 M0 0 C11.55 0, 23.1 0, 56 0 M56 0 C56 13.65, 56 27.3, 56 56 M56 0 C56 14.85, 56 29.71, 56 56 M56 56 C42.81 56, 29.62 56, 0 56 M56 56 C36.83 56, 17.66 56, 0 56 M0 56 C0 42.18, 0 28.36, 0 0 M0 56 C0 42.75, 0 29.5, 0 0" stroke="#1e1e1e" stroke-width="1" fill="none"></path></g><g transform="translate(20 407.5) rotate(0 18 22.5)"><text x="18" y="31.716" font-family="Excalifont, Xiaolai, sans-serif, Segoe UI Emoji" font-size="36px" fill="#1e1e1e" text-anchor="middle" style="white-space: pre;" direction="ltr" dominant-baseline="alphabetic">♔</text></g><g stroke-linecap="round" transform="translate(66 402) rotate(0 28 28)"><path d="M0 0 C16.62 0, 33.25 0, 56 0 M0 0 C19.62 0, 39.25 0, 56 0 M56 0 C56 11.89, 56 23.78, 56 56 M56 0 C56 21.42, 56 42.85, 56 56 M56 56 C35.78 56, 15.57 56, 0 56 M56 56 C42.1 56, 28.2 56, 0 56 M0 56 C0 35.01, 0 14.01, 0 0 M0 56 C0 38.86, 0 21.73, 0 0" stroke="#1e1e1e" stroke-width="1" fill="none"></path></g><g transform="translate(76 407.5) rotate(0 18 22.5)"><text x="18" y="31.716" font-family="Excalifont, Xiaolai, sans-serif, Segoe UI Emoji" font-size="36px" fill="#1e1e1e" text-anchor="middle" style="white-space: pre;" direction="ltr" dominant-baseline="alphabetic">♖</text></g><g stroke-linecap="round" transform="translate(122 402) rotate(0 28 28)"><path d="M0 0 C20.06 0, 40.11 0, 56 0 M0 0 C19.52 0, 39.04 0, 56 0 M56 0 C56 19.94, 56 39.88, 56 56 M56 0 C56 17.86, 56 35.73, 56 56 M56 56 C39.04 56, 22.08 56, 0 56 M56 56 C41.3 56, 26.61 56, 0 56 M0 56 C0 34.97, 0 13.94, 0 0 M0 56 C0 33.94, 0 11.88, 0 0" stroke="#1e1e1e" stroke-width="1" fill="none"></path></g><g transform="translate(132 407.5) rotate(0 18 22.5)"><text x="18" y="31.716" font-family="Excalifont, Xiaolai, sans-serif, Segoe UI Emoji" font-size="36px" fill="#1e1e1e" text-anchor="middle" style="white-space: pre;" direction="ltr" dominant-baseline="alphabetic">♗</text></g><g stroke-linecap="round" transform="translate(178 402) rotate(0 28 28)"><path d="M0 0 C18.52 0, 37.04 0, 56 0 M0 0 C18.5 0, 37.01 0, 56 0 M56 0 C56 12.24, 56 24.48, 56 56 M56 0 C56 19.75, 56 39.49, 56 56 M56 56 C36.15 56, 16.3 56, 0 56 M56 56 C42.57 56, 29.15 56, 0 56 M0 56 C0 44.02, 0 32.04, 0 0 M0 56 C0 41.44, 0 26.89, 0 0" stroke="#1e1e1e" stroke-width="1" fill="none"></path></g><g transform="translate(188 407.5) rotate(0 18 22.5)"><text x="18" y="31.716" font-family="Excalifont, Xiaolai, sans-serif, Segoe UI Emoji" font-size="36px" fill="#1e1e1e" text-anchor="middle" style="white-space: pre;" direction="ltr" dominant-baseline="alphabetic">♘</text></g><g stroke-linecap="round" transform="translate(10 10) rotate(0 28 28)"><path d="M0 0 C16.3 0, 32.61 0, 56 0 M0 0 C11.56 0, 23.12 0, 56 0 M56 0 C56 17.44, 56 34.88, 56 56 M56 0 C56 19.52, 56 39.04, 56 56 M56 56 C42.16 56, 28.32 56, 0 56 M56 56 C37.38 56, 18.76 56, 0 56 M0 56 C0 34.2, 0 12.4, 0 0 M0 56 C0 36.93, 0 17.85, 0 0" stroke="#1e1e1e" stroke-width="1" fill="none"></path></g><g transform="translate(20 15.5) rotate(0 18 22.5)"><text x="18" y="31.716" font-family="Excalifont, Xiaolai, sans-serif, Segoe UI Emoji" font-size="36px" fill="#1e1e1e" text-anchor="middle" style="white-space: pre;" direction="ltr" dominant-baseline="alphabetic">♚</text></g><g stroke-linecap="round" transform="translate(66 10) rotate(0 28 28)"><path d="M0 0 C11.39 0, 22.77 0, 56 0 M0 0 C21.86 0, 43.71 0, 56 0 M56 0 C56 14.74, 56 29.49, 56 56 M56 0 C56 11.77, 56 23.54, 56 56 M56 56 C43.26 56, 30.52 56, 0 56 M56 56 C36.8 56, 17.6 56, 0 56 M0 56 C0 42.14, 0 28.27, 0 0 M0 56 C0 41.35, 0 26.7, 0 0" stroke="#1e1e1e" stroke-width="1" fill="none"></path></g><g transform="translate(76 15.5) rotate(0 18 22.5)"><text x="18" y="31.716" font-family="Excalifont, Xiaolai, sans-serif, Segoe UI Emoji" font-size="36px" fill="#1e1e1e" text-anchor="middle" style="white-space: pre;" direction="ltr" dominant-baseline="alphabetic">♜</text></g><g stroke-linecap="round" transform="translate(122 10) rotate(0 28 28)"><path d="M0 0 C20.53 0, 41.06 0, 56 0 M0 0 C22.39 0, 44.78 0, 56 0 M56 0 C56 16.09, 56 32.17, 56 56 M56 0 C56 11.49, 56 22.98, 56 56 M56 56 C36.74 56, 17.48 56, 0 56 M56 56 C37.11 56, 18.21 56, 0 56 M0 56 C0 44.68, 0 33.36, 0 0 M0 56 C0 41.6, 0 27.19, 0 0" stroke="#1e1e1e" stroke-width="1" fill="none"></path></g><g transform="translate(132 15.5) rotate(0 18 22.5)"><text x="18" y="31.716" font-family="Excalifont, Xiaolai, sans-serif, Segoe UI Emoji" font-size="36px" fill="#1e1e1e" text-anchor="middle" style="white-space: pre;" direction="ltr" dominant-baseline="alphabetic">♝</text></g><g stroke-linecap="round" transform="translate(178 10) rotate(0 28 28)"><path d="M0 0 C12.08 0, 24.16 0, 56 0 M0 0 C16.01 0, 32.02 0, 56 0 M56 0 C56 12.03, 56 24.06, 56 56 M56 0 C56 20.41, 56 40.81, 56 56 M56 56 C42.19 56, 28.37 56, 0 56 M56 56 C36.14 56, 16.27 56, 0 56 M0 56 C0 42.34, 0 28.68, 0 0 M0 56 C0 39.08, 0 22.16, 0 0" stroke="#1e1e1e" stroke-width="1" fill="none"></path></g><g transform="translate(188 15.5) rotate(0 18 22.5)"><text x="18" y="31.716" font-family="Excalifont, Xiaolai, sans-serif, Segoe UI Emoji" font-size="36px" fill="#1e1e1e" text-anchor="middle" style="white-space: pre;" direction="ltr" dominant-baseline="alphabetic">♞</text></g></svg>